<?xml version="1.0" standalone="no"?>
<!DOCTYPE svg PUBLIC "-//W3C//DTD SVG 20010904//EN"
 "http://www.w3.org/TR/2001/REC-SVG-20010904/DTD/svg10.dtd">
<svg version="1.0" xmlns="http://www.w3.org/2000/svg"
 width="1344.000000pt" height="1344.000000pt" viewBox="0 0 1344.000000 1344.000000"
 preserveAspectRatio="xMidYMid meet">
<metadata>
Created by potrace 1.14, written by Peter Selinger 2001-2017
</metadata>
<g transform="translate(0.000000,1344.000000) scale(0.100000,-0.100000)"
fill="#000000" stroke="none">
<path d="M3346 10123 c-1 -1 -47 -5 -101 -8 -55 -3 -113 -8 -130 -10 -16 -3
-50 -7 -75 -10 -25 -2 -56 -7 -70 -10 -14 -3 -43 -7 -65 -10 -22 -2 -49 -7
-60 -10 -26 -6 -154 -35 -181 -41 -11 -2 -49 -13 -84 -24 -34 -11 -67 -20 -72
-20 -6 0 -24 -6 -41 -14 -18 -7 -72 -28 -122 -46 -240 -87 -587 -283 -752
-425 -6 -5 -30 -26 -54 -45 -60 -50 -156 -138 -198 -184 -20 -21 -52 -55 -71
-76 -19 -21 -48 -55 -65 -76 -16 -21 -38 -46 -47 -56 -10 -10 -18 -20 -18 -23
0 -5 -24 -36 -46 -59 -6 -6 -23 -32 -39 -56 -15 -25 -31 -47 -35 -50 -3 -3
-40 -61 -82 -130 -88 -146 -218 -407 -233 -470 -3 -8 -16 -46 -31 -85 -14 -38
-27 -77 -29 -85 -2 -8 -13 -42 -24 -75 -11 -33 -22 -72 -25 -87 -2 -15 -7 -32
-10 -37 -5 -8 -26 -96 -47 -201 -5 -25 -12 -56 -15 -70 -3 -14 -7 -41 -10 -60
-2 -19 -7 -46 -9 -60 -10 -57 -19 -137 -20 -172 0 -21 -2 -38 -5 -38 -3 0 -6
-12 -6 -27 -1 -16 -5 -75 -10 -133 -4 -58 -8 -215 -8 -350 0 -221 3 -315 18
-490 4 -51 7 -72 21 -188 3 -24 10 -65 15 -93 5 -27 9 -53 8 -57 -1 -4 1 -14
4 -22 3 -8 11 -44 18 -80 6 -36 14 -73 16 -82 6 -26 11 -49 19 -83 4 -16 16
-60 27 -97 11 -37 20 -71 20 -75 0 -5 4 -16 10 -26 5 -10 11 -26 13 -35 2 -9
17 -55 35 -102 17 -47 33 -89 34 -95 16 -57 176 -370 239 -468 20 -31 37 -61
37 -66 0 -5 3 -11 8 -13 4 -1 20 -23 37 -48 16 -25 39 -57 50 -71 11 -14 27
-36 35 -49 8 -12 22 -30 30 -39 9 -9 36 -41 60 -71 54 -68 267 -282 334 -335
28 -22 57 -47 66 -55 29 -26 266 -190 275 -190 3 0 23 -11 44 -24 67 -43 191
-106 191 -98 0 4 4 2 8 -3 4 -6 48 -28 97 -49 50 -21 104 -44 120 -51 26 -11
96 -35 220 -74 71 -22 235 -62 316 -75 19 -3 45 -8 59 -11 14 -3 50 -7 80 -10
30 -3 62 -8 70 -10 89 -25 670 -25 830 0 14 2 48 7 75 11 28 3 59 8 70 10 11
2 34 7 50 9 100 17 311 68 350 84 11 5 56 21 100 35 l80 26 18 -22 c11 -13 34
-41 52 -63 19 -22 50 -60 70 -85 20 -25 44 -54 53 -65 9 -11 35 -42 56 -70 45
-56 66 -82 81 -99 6 -6 48 -58 94 -116 46 -58 88 -109 93 -115 8 -9 1288 -15
1288 -6 0 3 -79 106 -116 150 -7 9 -56 70 -108 136 -53 66 -99 125 -104 130
-4 6 -38 48 -75 95 -38 47 -74 92 -80 100 -81 100 -147 183 -167 210 -14 18
-32 41 -40 50 -8 10 -44 55 -79 100 -36 45 -69 87 -75 94 -21 22 -76 95 -76
100 0 2 51 56 113 119 161 164 261 290 365 457 25 41 49 77 52 80 9 9 61 104
71 133 6 15 15 27 20 27 5 0 9 6 9 13 0 6 12 34 26 61 24 46 123 269 128 291
2 6 6 17 9 25 14 32 49 137 63 190 8 30 18 62 21 70 3 8 7 20 9 27 1 7 10 43
19 80 10 37 19 79 22 93 2 14 9 45 14 70 6 25 13 56 15 70 9 54 14 87 19 123
3 20 7 54 11 75 39 270 49 824 19 1072 -2 19 -7 64 -9 100 -3 36 -8 76 -11 90
-2 14 -7 39 -9 55 -9 58 -18 120 -22 140 -3 11 -7 36 -10 55 -3 19 -10 42 -15
51 -4 9 -6 19 -3 22 3 3 0 25 -7 48 -7 24 -14 51 -14 59 -1 8 -6 26 -10 40 -5
14 -10 30 -11 35 -12 48 -46 164 -54 180 -5 11 -14 38 -21 60 -6 22 -14 45
-18 50 -3 6 -6 12 -7 15 -8 39 -176 405 -193 420 -3 3 -15 21 -25 40 -39 72
-165 258 -238 351 -138 176 -332 369 -483 481 -5 4 -32 25 -60 46 -27 21 -72
52 -98 68 -27 16 -67 41 -90 56 -82 53 -285 155 -403 203 -90 37 -229 86 -237
84 -1 -1 -20 6 -42 14 -35 14 -143 42 -200 53 -11 2 -30 6 -42 9 -13 3 -31 7
-42 9 -20 5 -71 13 -128 21 -21 3 -49 8 -63 10 -28 5 -123 14 -215 22 -63 4
-405 10 -409 6z m354 -1227 c90 -10 116 -14 195 -33 17 -3 37 -7 45 -8 25 -3
154 -47 168 -58 6 -5 12 -6 12 -3 0 18 298 -152 346 -198 6 -6 30 -26 52 -44
48 -39 157 -150 180 -184 9 -13 24 -30 34 -39 10 -9 18 -19 18 -23 0 -4 8 -16
18 -27 52 -55 175 -290 222 -424 12 -33 24 -67 27 -75 12 -31 52 -177 60 -215
8 -47 11 -60 13 -62 4 -5 6 -15 14 -73 5 -30 10 -64 12 -75 4 -20 10 -65 19
-135 25 -195 25 -722 1 -860 -3 -14 -7 -52 -11 -85 -3 -33 -8 -69 -11 -80 -4
-21 -12 -65 -18 -100 -9 -51 -38 -173 -48 -205 -41 -126 -52 -158 -64 -187 -8
-17 -14 -34 -14 -37 0 -39 -189 -385 -239 -437 -9 -9 -23 -26 -31 -38 -8 -11
-17 -21 -20 -21 -3 0 -30 33 -60 72 -30 40 -61 80 -67 88 -7 8 -90 114 -184
235 l-172 220 -583 0 c-321 1 -584 -1 -584 -3 0 -1 5 -8 10 -15 10 -12 79
-102 115 -151 98 -132 159 -212 164 -216 4 -3 15 -18 25 -35 11 -16 23 -34 28
-40 5 -5 20 -23 33 -40 14 -16 38 -48 53 -70 15 -22 33 -44 39 -48 7 -4 13
-14 13 -22 0 -7 4 -15 8 -17 4 -1 37 -41 72 -88 36 -47 70 -92 77 -100 6 -8
33 -44 60 -80 26 -36 50 -67 53 -70 3 -3 23 -29 44 -57 32 -45 35 -53 19 -54
-10 0 -27 -2 -38 -5 -134 -28 -500 -25 -638 5 -23 6 -54 12 -68 14 -54 10
-240 77 -311 113 -89 45 -196 113 -263 168 -134 109 -299 303 -372 436 -37 68
-87 163 -88 170 0 3 -8 21 -17 40 -23 51 -89 240 -82 240 2 0 0 9 -6 19 -15
30 -76 324 -78 381 0 8 -2 24 -5 35 -28 123 -30 799 -3 942 3 12 7 48 11 80 3
32 8 65 10 73 2 8 7 35 10 59 20 141 99 396 170 548 40 85 113 217 138 248 4
6 24 33 45 60 67 90 178 208 256 270 21 17 43 35 50 40 20 18 101 69 105 66 2
-2 7 2 10 7 8 12 138 82 153 82 6 0 19 7 28 15 9 8 27 17 41 19 13 2 25 5 27
5 1 1 5 1 10 2 4 0 12 5 17 9 6 5 23 11 39 14 15 3 42 10 59 15 61 20 174 40
262 47 50 3 91 7 92 9 5 3 247 -4 293 -9z"/>
<path d="M7581 10015 c0 -11 0 -1462 -1 -3225 0 -1763 -1 -3219 0 -3237 0 -23
5 -32 18 -32 9 0 41 -1 70 -2 29 -1 55 1 58 4 3 3 16 2 28 -3 13 -4 29 -4 36
0 8 5 18 6 23 3 12 -7 147 -10 147 -3 0 7 87 3 99 -5 5 -3 12 -1 16 4 3 7 15
7 30 1 15 -6 27 -6 30 0 3 6 15 6 30 0 15 -6 27 -6 30 0 3 6 15 6 30 0 15 -6
27 -6 30 0 3 6 15 6 30 0 15 -6 27 -6 30 0 3 6 15 6 30 0 15 -6 27 -6 30 0 3
6 15 6 30 0 15 -6 27 -6 30 0 3 6 15 6 30 0 15 -6 27 -6 30 0 3 6 15 6 30 0
15 -6 27 -6 30 1 4 5 11 7 16 3 13 -8 107 -9 115 -1 3 3 16 2 28 -3 13 -4 29
-4 36 0 8 5 18 6 23 3 9 -5 118 -7 142 -3 6 1 17 3 25 4 10 1 15 13 16 41 1
22 3 45 4 50 1 6 1 15 0 20 -7 27 -4 225 3 225 5 0 5 6 1 12 -11 17 -11 228
-1 228 5 0 5 6 0 13 -10 16 -11 277 -1 299 4 9 5 19 0 21 -9 6 -8 209 1 224 4
7 4 14 0 16 -10 6 -9 209 0 224 4 7 4 14 0 16 -10 6 -9 209 0 224 4 7 4 14 0
16 -10 6 -10 228 0 243 3 6 3 14 0 18 -10 10 -10 526 0 526 5 0 5 6 1 12 -5 7
-8 68 -9 135 l0 123 80 0 c102 1 2544 1 2645 0 l75 0 -1 -1344 0 -1344 23 -5
c13 -2 25 -1 27 2 5 8 82 5 95 -4 5 -3 12 -1 16 4 3 7 15 7 30 1 15 -6 27 -6
30 0 3 6 15 6 30 0 15 -6 27 -6 30 0 3 6 15 6 30 0 15 -6 27 -6 30 0 3 6 15 6
30 0 15 -6 27 -6 30 0 3 6 15 6 30 0 15 -6 27 -6 30 0 3 6 15 6 30 0 15 -6 27
-6 30 0 3 6 15 6 30 0 15 -6 27 -6 30 0 3 6 15 6 30 0 15 -6 27 -6 30 1 4 5
11 7 16 3 13 -8 107 -9 115 -1 3 3 16 2 28 -3 13 -4 29 -4 36 0 8 5 18 6 23 3
12 -7 147 -10 147 -3 0 7 89 4 96 -3 4 -3 17 -2 30 3 14 6 26 6 29 0 3 -6 15
-6 30 0 15 6 27 6 30 0 3 -6 15 -6 30 0 15 6 27 6 30 0 3 -6 15 -6 30 0 15 6
27 6 30 0 3 -5 12 -7 19 -4 12 5 14 508 13 3262 l-2 3257 -675 1 c-371 0 -680
-1 -686 -3 -7 -3 -10 -410 -9 -1331 0 -730 -1 -1334 -3 -1342 -3 -13 -164 -15
-1388 -13 -762 0 -1390 3 -1397 6 -14 5 -16 84 -3 105 4 7 4 12 -1 12 -10 0
-9 211 0 227 4 7 4 14 0 16 -10 6 -10 228 0 243 3 6 3 14 0 18 -10 10 -10 526
0 526 5 0 5 6 1 12 -11 17 -11 228 -1 228 5 0 5 6 1 12 -11 17 -11 228 -1 228
5 0 5 6 1 12 -11 17 -11 228 -1 228 5 0 5 6 0 13 -10 16 -11 277 -1 299 4 9 5
19 0 21 -9 6 -8 209 1 224 4 7 4 14 -1 17 -4 2 -7 57 -6 120 1 64 -1 117 -5
117 -3 1 -313 2 -688 3 -680 2 -682 2 -682 -19z"/>
</g>
</svg>
