<svg width="22" height="21" viewBox="0 0 22 21" fill="none" xmlns="http://www.w3.org/2000/svg">
<path d="M20.7751 0.75L12.666 6.76564L14.1739 3.22042L20.7751 0.75Z" fill="#E17726" stroke="#E17726" stroke-width="0.10303" stroke-linecap="round" stroke-linejoin="round"/>
<path d="M2.07031 0.75L10.1072 6.82179L8.67148 3.22042L2.07031 0.75Z" fill="#E27625" stroke="#E27625" stroke-width="0.10303" stroke-linecap="round" stroke-linejoin="round"/>
<path d="M17.8554 14.6982L15.6978 18.0028L20.3178 19.2782L21.6412 14.7704L17.8554 14.6982Z" fill="#E27625" stroke="#E27625" stroke-width="0.10303" stroke-linecap="round" stroke-linejoin="round"/>
<path d="M1.21216 14.7704L2.52758 19.2782L7.13957 18.0028L4.98998 14.6982L1.21216 14.7704Z" fill="#E27625" stroke="#E27625" stroke-width="0.10303" stroke-linecap="round" stroke-linejoin="round"/>
<path d="M6.89076 9.11527L5.60742 11.0563L10.1793 11.2649L10.0269 6.33203L6.89076 9.11527Z" fill="#E27625" stroke="#E27625" stroke-width="0.10303" stroke-linecap="round" stroke-linejoin="round"/>
<path d="M15.9546 9.11575L12.7703 6.27637L12.666 11.2653L17.2379 11.0568L15.9546 9.11575Z" fill="#E27625" stroke="#E27625" stroke-width="0.10303" stroke-linecap="round" stroke-linejoin="round"/>
<path d="M7.13965 18.0031L9.90684 16.6636L7.52465 14.8027L7.13965 18.0031Z" fill="#E27625" stroke="#E27625" stroke-width="0.10303" stroke-linecap="round" stroke-linejoin="round"/>
<path d="M12.9387 16.6636L15.6979 18.0031L15.3209 14.8027L12.9387 16.6636Z" fill="#E27625" stroke="#E27625" stroke-width="0.10303" stroke-linecap="round" stroke-linejoin="round"/>
<path d="M15.6979 18.0026L12.9387 16.6631L13.1633 18.4598L13.1392 19.2217L15.6979 18.0026Z" fill="#D5BFB2" stroke="#D5BFB2" stroke-width="0.10303" stroke-linecap="round" stroke-linejoin="round"/>
<path d="M7.13989 18.0026L9.70657 19.2217L9.69053 18.4598L9.90709 16.6631L7.13989 18.0026Z" fill="#D5BFB2" stroke="#D5BFB2" stroke-width="0.10303" stroke-linecap="round" stroke-linejoin="round"/>
<path d="M9.75442 13.615L7.46045 12.9413L9.08066 12.1953L9.75442 13.615Z" fill="#233447" stroke="#233447" stroke-width="0.10303" stroke-linecap="round" stroke-linejoin="round"/>
<path d="M13.0911 13.615L13.7648 12.1953L15.393 12.9413L13.0911 13.615Z" fill="#233447" stroke="#233447" stroke-width="0.10303" stroke-linecap="round" stroke-linejoin="round"/>
<path d="M7.13958 18.0028L7.54062 14.6982L4.98999 14.7704L7.13958 18.0028Z" fill="#CC6228" stroke="#CC6228" stroke-width="0.10303" stroke-linecap="round" stroke-linejoin="round"/>
<path d="M15.3049 14.6982L15.698 18.0028L17.8556 14.7704L15.3049 14.6982Z" fill="#CC6228" stroke="#CC6228" stroke-width="0.10303" stroke-linecap="round" stroke-linejoin="round"/>
<path d="M17.2377 11.0566L12.6658 11.2652L13.0909 13.6153L13.7646 12.1956L15.3929 12.9415L17.2377 11.0566Z" fill="#CC6228" stroke="#CC6228" stroke-width="0.10303" stroke-linecap="round" stroke-linejoin="round"/>
<path d="M7.46024 12.9415L9.08045 12.1956L9.75421 13.6153L10.1793 11.2652L5.60742 11.0566L7.46024 12.9415Z" fill="#CC6228" stroke="#CC6228" stroke-width="0.10303" stroke-linecap="round" stroke-linejoin="round"/>
<path d="M5.60767 11.0566L7.52465 14.8024L7.46048 12.9415L5.60767 11.0566Z" fill="#E27525" stroke="#E27525" stroke-width="0.10303" stroke-linecap="round" stroke-linejoin="round"/>
<path d="M15.393 12.9415L15.3208 14.8024L17.2378 11.0566L15.393 12.9415Z" fill="#E27525" stroke="#E27525" stroke-width="0.10303" stroke-linecap="round" stroke-linejoin="round"/>
<path d="M10.1795 11.2646L9.75439 13.6148L10.2918 16.39L10.4121 12.7325L10.1795 11.2646Z" fill="#E27525" stroke="#E27525" stroke-width="0.10303" stroke-linecap="round" stroke-linejoin="round"/>
<path d="M12.666 11.2646L12.4414 12.7244L12.5537 16.39L13.0911 13.6148L12.666 11.2646Z" fill="#E27525" stroke="#E27525" stroke-width="0.10303" stroke-linecap="round" stroke-linejoin="round"/>
<path d="M13.0911 13.6152L12.5537 16.3904L12.9387 16.6631L15.3209 14.8022L15.3931 12.9414L13.0911 13.6152Z" fill="#F5841F" stroke="#F5841F" stroke-width="0.10303" stroke-linecap="round" stroke-linejoin="round"/>
<path d="M7.46045 12.9414L7.52462 14.8022L9.90681 16.6631L10.2918 16.3904L9.75442 13.6152L7.46045 12.9414Z" fill="#F5841F" stroke="#F5841F" stroke-width="0.10303" stroke-linecap="round" stroke-linejoin="round"/>
<path d="M13.1395 19.2221L13.1636 18.4601L12.955 18.2837H9.89105L9.69053 18.4601L9.70657 19.2221L7.13989 18.0029L8.03823 18.7408L9.85896 20.0001H12.9791L14.8078 18.7408L15.6981 18.0029L13.1395 19.2221Z" fill="#C0AC9D" stroke="#C0AC9D" stroke-width="0.10303" stroke-linecap="round" stroke-linejoin="round"/>
<path d="M12.9386 16.6633L12.5536 16.3906H10.2917L9.90675 16.6633L9.69019 18.46L9.89071 18.2835H12.9547L13.1632 18.46L12.9386 16.6633Z" fill="#161616" stroke="#161616" stroke-width="0.10303" stroke-linecap="round" stroke-linejoin="round"/>
<path d="M21.12 7.15867L21.8018 3.83803L20.7751 0.75L12.9387 6.56512L15.9546 9.11576L20.2136 10.359L21.1521 9.26013L20.743 8.96336L21.3927 8.36982L20.8954 7.98481L21.5451 7.48752L21.12 7.15867Z" fill="#763E1A" stroke="#763E1A" stroke-width="0.10303" stroke-linecap="round" stroke-linejoin="round"/>
<path d="M1.0437 3.83803L1.7335 7.15867L1.29235 7.48752L1.95006 7.98481L1.45276 8.36982L2.10245 8.96336L1.69339 9.26013L2.63183 10.359L6.89091 9.11576L9.90675 6.56512L2.07037 0.75L1.0437 3.83803Z" fill="#763E1A" stroke="#763E1A" stroke-width="0.10303" stroke-linecap="round" stroke-linejoin="round"/>
<path d="M20.2135 10.3585L15.9544 9.11523L17.2378 11.0563L15.3208 14.802L17.8554 14.7699H21.6412L20.2135 10.3585Z" fill="#F5841F" stroke="#F5841F" stroke-width="0.10303" stroke-linecap="round" stroke-linejoin="round"/>
<path d="M6.89093 9.11523L2.63185 10.3585L1.21216 14.7699H4.98998L7.52457 14.802L5.60759 11.0563L6.89093 9.11523Z" fill="#F5841F" stroke="#F5841F" stroke-width="0.10303" stroke-linecap="round" stroke-linejoin="round"/>
<path d="M12.666 11.2646L12.9387 6.56442L14.1739 3.21973H8.67163L9.90684 6.56442L10.1796 11.2646L10.2838 12.7405L10.2918 16.39H12.5537L12.5617 12.7405L12.666 11.2646Z" fill="#F5841F" stroke="#F5841F" stroke-width="0.10303" stroke-linecap="round" stroke-linejoin="round"/>
</svg>
