<?xml version="1.0" encoding="UTF-8"?>
<svg width="17px" height="18px" viewBox="0 0 17 18" version="1.1" xmlns="http://www.w3.org/2000/svg" xmlns:xlink="http://www.w3.org/1999/xlink">
    <title>Shape</title>
    <g id="Page-1" stroke="none" stroke-width="1" fill="none" fill-rule="evenodd">
        <path d="M12.2111242,17.1512542 L8.53246953,13.9805689 C8.11026123,13.6276291 8.39723093,13.0149323 8.99013672,13.0157569 L11.3436181,13.0223539 L11.3230025,6.19280491 C11.375276,5.51895994 11.9606731,5.01303847 12.6349818,5.05894474 C13.3114038,5.0189282 13.8965655,5.52509301 13.9543827,6.20022654 L13.9741737,13.0297756 L16.3416737,13.0363726 C16.9189116,13.0363726 17.2256724,13.6523679 16.8051133,14.004483 L13.1446004,17.1512542 C13.0135404,17.2582032 12.849495,17.3164787 12.6803362,17.3161843 C12.5096186,17.3168066 12.3439043,17.2585591 12.2111242,17.1512542 L12.2111242,17.1512542 Z M4.35244248,12.2612245 C3.67586152,12.3026007 3.09001936,11.7962134 3.03304156,11.1207674 L3.01242592,4.27637507 L0.658119893,4.26977807 C0.0808819889,4.26977807 -0.224229475,3.65378276 0.195504944,3.30166764 L3.85519326,0.153247186 C4.12587747,-0.0635295258 4.51233805,-0.0576478517 4.77630003,0.16726582 L8.4541301,3.33795116 C8.8763384,3.69171554 8.58854407,4.30441234 7.99728753,4.30276309 L5.64298151,4.29616609 L5.66359715,11.1265397 C5.61173958,11.797977 5.0293878,12.3027554 4.35739023,12.2587507 L4.35244248,12.2612245 Z" id="Shape" fill="#353535" fill-rule="nonzero"></path>
    </g>
</svg>