<svg width="48" height="48" viewBox="0 0 48 48" fill="none" xmlns="http://www.w3.org/2000/svg">
<rect width="48" height="48" rx="24" fill="white"/>
<path d="M16 24C16 19.5817 19.5817 16 24 16C26.5171 16 28.7288 17.1635 30.1822 18.9932L28.5029 18.9883C27.9506 18.9867 27.5016 19.4331 27.5 19.9854C27.4984 20.5376 27.9448 20.9867 28.4971 20.9883L31.9399 20.9984C31.9783 21.0007 32.017 21.0008 32.0557 20.9987L32.4971 21C32.7628 21.0008 33.0179 20.8958 33.2061 20.7081C33.3942 20.5205 33.5 20.2657 33.5 20L33.5 16C33.5 15.4477 33.0523 15 32.5 15C31.9477 15 31.5 15.4477 31.5 16L31.5 17.4495C29.6875 15.3404 27.023 14 24 14C18.4772 14 14 18.4772 14 24C14 24.5523 14.4477 25 15 25C15.5523 25 16 24.5523 16 24Z" fill="#1A1D1F"/>
<path d="M32 24C32 28.4183 28.4183 32 24 32C21.4829 32 19.2712 30.8365 17.8178 29.0068L19.4971 29.0117C20.0494 29.0133 20.4984 28.5669 20.5 28.0146C20.5016 27.4624 20.0552 27.0133 19.5029 27.0117L16.0601 27.0016C16.0217 26.9993 15.983 26.9992 15.9443 27.0013L15.5029 27C15.2372 26.9992 14.9821 27.1042 14.7939 27.2919C14.6058 27.4795 14.5 27.7343 14.5 28L14.5 32C14.5 32.5523 14.9477 33 15.5 33C16.0523 33 16.5 32.5523 16.5 32L16.5 30.5505C18.3125 32.6596 20.977 34 24 34C29.5228 34 34 29.5228 34 24C34 23.4477 33.5523 23 33 23C32.4477 23 32 23.4477 32 24Z" fill="#1A1D1F"/>
</svg>
