<svg width="48" height="48" viewBox="0 0 48 48" fill="none" xmlns="http://www.w3.org/2000/svg">
<rect x="1" y="1" width="46" height="46" rx="23" fill="white"/>
<path fill-rule="evenodd" clip-rule="evenodd" d="M15 14C15.5523 14 16 14.4477 16 15V31C16 31.5523 16.4477 32 17 32H33C33.5523 32 34 32.4477 34 33C34 33.5523 33.5523 34 33 34H17C15.3431 34 14 32.6569 14 31V15C14 14.4477 14.4477 14 15 14Z" fill="black"/>
<path fill-rule="evenodd" clip-rule="evenodd" d="M19 20C19.5523 20 20 20.4477 20 21V29C20 29.5523 19.5523 30 19 30C18.4477 30 18 29.5523 18 29V21C18 20.4477 18.4477 20 19 20Z" fill="black"/>
<path fill-rule="evenodd" clip-rule="evenodd" d="M23 26C23.5523 26 24 26.4477 24 27V29C24 29.5523 23.5523 30 23 30C22.4477 30 22 29.5523 22 29V27C22 26.4477 22.4477 26 23 26Z" fill="black"/>
<path fill-rule="evenodd" clip-rule="evenodd" d="M27 16C27.5523 16 28 16.4477 28 17V29C28 29.5523 27.5523 30 27 30C26.4477 30 26 29.5523 26 29V17C26 16.4477 26.4477 16 27 16Z" fill="black"/>
<path fill-rule="evenodd" clip-rule="evenodd" d="M31 22C31.5523 22 32 22.4477 32 23V29C32 29.5523 31.5523 30 31 30C30.4477 30 30 29.5523 30 29V23C30 22.4477 30.4477 22 31 22Z" fill="black"/>
<rect x="1" y="1" width="46" height="46" rx="23" stroke="#EFEFEF" stroke-width="2"/>
</svg>
