<svg width="36" height="36" viewBox="0 0 36 36" fill="none" xmlns="http://www.w3.org/2000/svg">
<rect width="36" height="36" rx="18" fill="#EFEFEF"/>
<path d="M13.5893 12.4111C13.2639 12.0856 12.7363 12.0856 12.4108 12.4111C12.0854 12.7365 12.0854 13.2641 12.4108 13.5896L16.8216 18.0003L12.4108 22.4111C12.0854 22.7365 12.0854 23.2641 12.4108 23.5896C12.7363 23.915 13.2639 23.915 13.5894 23.5896L18.0001 19.1788L22.4108 23.5896C22.7363 23.915 23.2639 23.915 23.5893 23.5896C23.9148 23.2642 23.9148 22.7365 23.5893 22.4111L19.1786 18.0003L23.5894 13.5896C23.9148 13.2641 23.9148 12.7365 23.5894 12.4111C23.2639 12.0856 22.7363 12.0856 22.4109 12.4111L18.0001 16.8218L13.5893 12.4111Z" fill="#33383F"/>
</svg>
