<svg width="48" height="48" viewBox="0 0 48 48" fill="none" xmlns="http://www.w3.org/2000/svg">
<rect x="1" y="1" width="46" height="46" rx="23" fill="white"/>
<path fill-rule="evenodd" clip-rule="evenodd" d="M19 21C20.1046 21 21 20.1046 21 19C21 17.8954 20.1046 17 19 17C17.8954 17 17 17.8954 17 19C17 20.1046 17.8954 21 19 21ZM19 23C21.2091 23 23 21.2091 23 19C23 16.7909 21.2091 15 19 15C16.7909 15 15 16.7909 15 19C15 21.2091 16.7909 23 19 23Z" fill="#1A1D1F"/>
<path fill-rule="evenodd" clip-rule="evenodd" d="M29 31C30.1046 31 31 30.1046 31 29C31 27.8954 30.1046 27 29 27C27.8954 27 27 27.8954 27 29C27 30.1046 27.8954 31 29 31ZM29 33C31.2091 33 33 31.2091 33 29C33 26.7909 31.2091 25 29 25C26.7909 25 25 26.7909 25 29C25 31.2091 26.7909 33 29 33Z" fill="#1A1D1F"/>
<path fill-rule="evenodd" clip-rule="evenodd" d="M30.6001 15.2001C31.0419 15.5314 31.1314 16.1582 30.8001 16.6001L18.8001 32.6001C18.4687 33.0419 17.8419 33.1314 17.4001 32.8001C16.9582 32.4687 16.8687 31.8419 17.2001 31.4001L29.2001 15.4001C29.5314 14.9582 30.1582 14.8687 30.6001 15.2001Z" fill="#1A1D1F"/>
<rect x="1" y="1" width="46" height="46" rx="23" stroke="#F4F4F4" stroke-width="2"/>
</svg>
