<svg width="34" height="34" viewBox="0 0 34 34" fill="none" xmlns="http://www.w3.org/2000/svg">
<rect width="32" height="32" rx="16" fill="#F4F4F4"/>
<path d="M16.8335 19.1104C17.3317 18.8222 17.6668 18.2836 17.6668 17.6667C17.6668 16.7462 16.9206 16 16.0002 16C15.0797 16 14.3335 16.7462 14.3335 17.6667C14.3335 18.2836 14.6687 18.8222 15.1668 19.1104V20.1667C15.1668 20.6269 15.5399 21 16.0002 21C16.4604 21 16.8335 20.6269 16.8335 20.1667V19.1104Z" fill="#6F767E"/>
<path fill-rule="evenodd" clip-rule="evenodd" d="M11.8335 12.667V11.8337C11.8335 9.53247 13.699 7.66699 16.0002 7.66699C18.3013 7.66699 20.1668 9.53247 20.1668 11.8337V12.667C21.5475 12.667 22.6668 13.7863 22.6668 15.167V21.8337C22.6668 23.2144 21.5475 24.3337 20.1668 24.3337H11.8335C10.4528 24.3337 9.3335 23.2144 9.3335 21.8337V15.167C9.3335 13.7863 10.4528 12.667 11.8335 12.667ZM13.5002 11.8337C13.5002 10.4529 14.6195 9.33366 16.0002 9.33366C17.3809 9.33366 18.5002 10.4529 18.5002 11.8337V12.667H13.5002V11.8337ZM11.0002 15.167C11.0002 14.7068 11.3733 14.3337 11.8335 14.3337H20.1668C20.6271 14.3337 21.0002 14.7068 21.0002 15.167V21.8337C21.0002 22.2939 20.6271 22.667 20.1668 22.667H11.8335C11.3733 22.667 11.0002 22.2939 11.0002 21.8337V15.167Z" fill="#6F767E"/>
<rect x="21" y="21" width="12" height="12" rx="6" fill="#FF6A55"/>
<rect x="21" y="21" width="12" height="12" rx="6" stroke="#FCFCFC" stroke-width="2"/>
</svg>
