<svg width="20" height="20" viewBox="0 0 20 20" fill="none" xmlns="http://www.w3.org/2000/svg">
<path d="M5 4.16667H11.6667C12.1269 4.16667 12.5 4.53976 12.5 5V5.83333H14.1667V5C14.1667 3.61929 13.0474 2.5 11.6667 2.5H5C3.61929 2.5 2.5 3.61929 2.5 5V11.6667C2.5 13.0474 3.61929 14.1667 5 14.1667H5.83333V12.5H5C4.53976 12.5 4.16667 12.1269 4.16667 11.6667V5C4.16667 4.53976 4.53976 4.16667 5 4.16667Z" fill="#9A9FA5"/>
<path fill-rule="evenodd" clip-rule="evenodd" d="M15.0002 7.50016H8.3335C7.87326 7.50016 7.50016 7.87326 7.50016 8.3335V15.0002C7.50016 15.4604 7.87326 15.8335 8.3335 15.8335H15.0002C15.4604 15.8335 15.8335 15.4604 15.8335 15.0002V8.3335C15.8335 7.87326 15.4604 7.50016 15.0002 7.50016ZM8.3335 5.8335C6.95278 5.8335 5.8335 6.95278 5.8335 8.3335V15.0002C5.8335 16.3809 6.95278 17.5002 8.3335 17.5002H15.0002C16.3809 17.5002 17.5002 16.3809 17.5002 15.0002V8.3335C17.5002 6.95278 16.3809 5.8335 15.0002 5.8335H8.3335Z" fill="#9A9FA5"/>
</svg>
