<svg width="25" height="24" viewBox="0 0 25 24" fill="none" xmlns="http://www.w3.org/2000/svg">
<path fill-rule="evenodd" clip-rule="evenodd" d="M8.56567 6.02511C6.71318 7.28622 5.5 9.4111 5.5 11.8162C5.5 15.6822 8.63401 18.8162 12.5 18.8162C14.9051 18.8162 17.0299 17.603 18.2911 15.7505C13.1817 15.192 9.12421 11.1344 8.56567 6.02511ZM19.5 13.8162C20.366 13.8162 21.1118 14.5794 20.7691 15.3748C19.3898 18.5755 16.2066 20.8162 12.5 20.8162C7.52944 20.8162 3.5 16.7867 3.5 11.8162C3.5 8.1096 5.74067 4.92636 8.9414 3.54709C9.73674 3.20436 10.5 3.95014 10.5 4.81619C10.5 9.78675 14.5294 13.8162 19.5 13.8162Z" fill="#6F767E"/>
</svg>
