<?xml version="1.0" encoding="UTF-8"?>
<svg width="21px" height="12px" viewBox="0 0 21 12" version="1.1" xmlns="http://www.w3.org/2000/svg" xmlns:xlink="http://www.w3.org/1999/xlink">
    <title>QH</title>
    <g id="Page-1" stroke="none" stroke-width="1" fill="none" fill-rule="evenodd">
        <g id="QH" transform="translate(0.705966, 0.678977)" fill-rule="nonzero">
            <path d="M9.53551136,5.23011364 C9.53551136,6.13825758 9.39133523,6.93702652 9.10298295,7.62642045 C8.81463068,8.31581439 8.421875,8.88257576 7.92471591,9.32670455 L9.38139205,11.15625 L7.37286932,11.15625 L6.55255682,10.147017 C5.99905303,10.3558239 5.40411932,10.4602273 4.76775568,10.4602273 C3.86292614,10.4602273 3.05089962,10.2547348 2.33167614,9.84375 C1.61245265,9.43276515 1.04403409,8.83700284 0.626420455,8.05646307 C0.208806818,7.2759233 0,6.33380682 0,5.23011364 C0,4.11979167 0.208806818,3.17518939 0.626420455,2.39630682 C1.04403409,1.61742424 1.61245265,1.02331913 2.33167614,0.613991477 C3.05089962,0.204663826 3.86292614,0 4.76775568,0 C5.66927083,0 6.47964015,0.204663826 7.19886364,0.613991477 C7.91808712,1.02331913 8.48733428,1.61742424 8.90660511,2.39630682 C9.32587595,3.17518939 9.53551136,4.11979167 9.53551136,5.23011364 Z M4.02201705,6.78125 L5.8515625,6.78125 L6.60724432,7.75071023 C6.84256629,7.46898674 7.02568655,7.11766098 7.15660511,6.69673295 C7.28752367,6.27580492 7.35298295,5.78693182 7.35298295,5.23011364 C7.35298295,4.14962121 7.11766098,3.32516572 6.64701705,2.75674716 C6.17637311,2.1883286 5.54995265,1.90411932 4.76775568,1.90411932 C3.98555871,1.90411932 3.35913826,2.1883286 2.88849432,2.75674716 C2.41785038,3.32516572 2.18252841,4.14962121 2.18252841,5.23011364 C2.18252841,6.30729167 2.41785038,7.13091856 2.88849432,7.70099432 C3.35913826,8.27107008 3.98555871,8.55610795 4.76775568,8.55610795 C4.96330492,8.55610795 5.14891098,8.53787879 5.32457386,8.50142045 L4.02201705,6.78125 Z" id="Shape" fill="#2A85FF"></path>
            <polygon id="Path" fill="#272B30" points="11.1363636 10.3210227 11.1363636 0.139204545 13.2890625 0.139204545 13.2890625 4.34019886 17.6590909 4.34019886 17.6590909 0.139204545 19.8068182 0.139204545 19.8068182 10.3210227 17.6590909 10.3210227 17.6590909 6.11505682 13.2890625 6.11505682 13.2890625 10.3210227"></polygon>
        </g>
    </g>
</svg>