<svg width="48" height="48" viewBox="0 0 48 48" fill="none" xmlns="http://www.w3.org/2000/svg">
<rect width="48" height="48" rx="24" fill="white"/>
<path fill-rule="evenodd" clip-rule="evenodd" d="M13.8578 13.522C16.856 12.6347 19.5967 12.9794 21.966 14.6468C23.5631 15.7707 24.4902 17.3882 24.8387 19.3943C25.6479 18.3457 26.6668 17.6072 27.9211 17.2444C30.2035 16.5841 32.4222 16.8964 34.5118 18.1435C34.8129 18.3233 34.9979 18.6477 34.9993 18.9984C35.0045 20.3702 34.7083 21.6137 34.0704 22.6903C33.432 23.7676 32.4864 24.6191 31.2848 25.26C29.1166 26.4167 26.85 26.3079 24.5903 25.1169C24.3868 26.5123 24.2958 28.1534 24.3236 30.0467C26.1162 30.0927 26.2593 30.4278 28.7351 31.0285C29.2718 31.1587 29.6014 31.6993 29.4712 32.236C29.341 32.7728 28.8003 33.1023 28.2636 32.9721C25.914 32.4021 24.3926 32.0496 24.3926 32.0496C24.3926 32.0496 24.124 32.0038 23.9995 32C23.7745 31.9931 23.4838 32.0328 23.2769 32.0496C23.1094 32.0632 23.038 32.1187 22.7355 32.1349C22.6024 32.142 22.3943 32.1349 22.3943 32.1349C20.991 32.3096 19.4922 32.7323 17.8942 33.419C17.3867 33.6371 16.7986 33.4025 16.5806 32.8951C16.3625 32.3877 16.5971 31.7996 17.1045 31.5815C18.9063 30.8073 20.6477 30.3173 22.3246 30.1292C22.2902 27.9549 22.405 26.0442 22.6773 24.4059C19.9833 24.9337 17.6077 24.4332 15.6833 22.7536C13.4068 20.7668 12.64 17.876 13.1519 14.3377C13.2078 13.9513 13.4834 13.6328 13.8578 13.522ZM25.1679 23.1503C27.0947 24.2887 28.7777 24.3307 30.3435 23.4954C31.2747 22.9987 31.9263 22.3854 32.3497 21.6708C32.6951 21.0879 32.9117 20.3985 32.9778 19.5818C31.5094 18.8475 30.0247 18.7178 28.4768 19.1656C27.0859 19.5679 25.931 20.7653 25.1679 23.1503ZM22.9641 22.2888C23.1858 19.2716 22.3737 17.3793 20.8149 16.2824C19.1643 15.1207 17.2727 14.7616 15.0527 15.2743C14.7891 18.0159 15.4992 19.9384 16.9984 21.2468C18.4903 22.5489 20.4206 22.9625 22.9641 22.2888Z" fill="black"/>
</svg>
