<svg width="48" height="48" viewBox="0 0 48 48" fill="none" xmlns="http://www.w3.org/2000/svg">
<rect x="1" y="1" width="46" height="46" rx="23" fill="white"/>
<path d="M26.4995 22.9689C28.4728 22.723 29.9998 21.0398 29.9998 18.9999C29.9998 16.9599 28.4728 15.2767 26.4995 15.0308C27.4332 16.0885 27.9998 17.478 27.9998 18.9999C27.9998 20.5217 27.4332 21.9112 26.4995 22.9689Z" fill="#1A1D1F"/>
<path d="M32 31.9998C32 32.5521 32.4477 32.9998 33 32.9998C33.5523 32.9998 34 32.5521 34 31.9998V29.9998C34 27.3397 31.9227 25.1648 29.3018 25.0088C30.3539 25.9405 31.1587 27.1452 31.6055 28.5118C31.8565 28.9504 32 29.4583 32 29.9998V31.9998Z" fill="#1A1D1F"/>
<path fill-rule="evenodd" clip-rule="evenodd" d="M19 27C17.3431 27 16 28.3431 16 30V32C16 32.5523 15.5523 33 15 33C14.4477 33 14 32.5523 14 32V30C14 27.2386 16.2386 25 19 25H25C27.7614 25 30 27.2386 30 30V32C30 32.5523 29.5523 33 29 33C28.4477 33 28 32.5523 28 32V30C28 28.3431 26.6569 27 25 27H19Z" fill="#1A1D1F"/>
<path fill-rule="evenodd" clip-rule="evenodd" d="M22 17C20.8954 17 20 17.8954 20 19C20 20.1046 20.8954 21 22 21C23.1046 21 24 20.1046 24 19C24 17.8954 23.1046 17 22 17ZM18 19C18 16.7909 19.7909 15 22 15C24.2091 15 26 16.7909 26 19C26 21.2091 24.2091 23 22 23C19.7909 23 18 21.2091 18 19Z" fill="#1A1D1F"/>
<rect x="1" y="1" width="46" height="46" rx="23" stroke="#F4F4F4" stroke-width="2"/>
</svg>
