<svg width="25" height="24" viewBox="0 0 25 24" fill="none" xmlns="http://www.w3.org/2000/svg">
<path fill-rule="evenodd" clip-rule="evenodd" d="M12.5 18C15.8137 18 18.5 15.3137 18.5 12C18.5 8.68629 15.8137 6 12.5 6C9.18629 6 6.5 8.68629 6.5 12C6.5 15.3137 9.18629 18 12.5 18Z" fill="#1A1D1F"/>
<path fill-rule="evenodd" clip-rule="evenodd" d="M12.495 1.5C13.0473 1.5 13.495 1.94772 13.495 2.5V3.5C13.495 4.05228 13.0473 4.5 12.495 4.5C11.9427 4.5 11.495 4.05228 11.495 3.5V2.5C11.495 1.94772 11.9427 1.5 12.495 1.5Z" fill="#1A1D1F"/>
<path fill-rule="evenodd" clip-rule="evenodd" d="M12.495 19.5C13.0473 19.5 13.495 19.9477 13.495 20.5V21.4968C13.495 22.0491 13.0473 22.4968 12.495 22.4968C11.9427 22.4968 11.495 22.0491 11.495 21.4968V20.5C11.495 19.9477 11.9427 19.5 12.495 19.5Z" fill="#1A1D1F"/>
<path fill-rule="evenodd" clip-rule="evenodd" d="M1.99658 11.9984C1.99658 11.4461 2.4443 10.9984 2.99658 10.9984H3.99658C4.54887 10.9984 4.99658 11.4461 4.99658 11.9984C4.99658 12.5507 4.54887 12.9984 3.99658 12.9984H2.99658C2.4443 12.9984 1.99658 12.5507 1.99658 11.9984Z" fill="#1A1D1F"/>
<path fill-rule="evenodd" clip-rule="evenodd" d="M19.9966 11.9984C19.9966 11.4461 20.4443 10.9984 20.9966 10.9984H21.9934C22.5456 10.9984 22.9934 11.4461 22.9934 11.9984C22.9934 12.5507 22.5456 12.9984 21.9934 12.9984H20.9966C20.4443 12.9984 19.9966 12.5507 19.9966 11.9984Z" fill="#1A1D1F"/>
<path fill-rule="evenodd" clip-rule="evenodd" d="M5.07159 19.4219C4.68106 19.0313 4.68106 18.3982 5.07159 18.0077L5.77869 17.3005C6.16922 16.91 6.80238 16.91 7.19291 17.3005C7.58343 17.6911 7.58343 18.3242 7.19291 18.7148L6.4858 19.4219C6.09527 19.8124 5.46211 19.8124 5.07159 19.4219Z" fill="#1A1D1F"/>
<path fill-rule="evenodd" clip-rule="evenodd" d="M17.7995 6.69394C17.409 6.30342 17.409 5.67025 17.7995 5.27973L18.5043 4.5749C18.8949 4.18438 19.528 4.18438 19.9185 4.5749C20.3091 4.96543 20.3091 5.59859 19.9185 5.98911L19.2137 6.69394C18.8232 7.08447 18.19 7.08447 17.7995 6.69394Z" fill="#1A1D1F"/>
<path fill-rule="evenodd" clip-rule="evenodd" d="M5.07159 4.5749C5.46211 4.18438 6.09527 4.18438 6.4858 4.5749L7.19291 5.28201C7.58343 5.67253 7.58343 6.3057 7.19291 6.69622C6.80238 7.08675 6.16922 7.08675 5.77869 6.69622L5.07159 5.98911C4.68106 5.59859 4.68106 4.96543 5.07159 4.5749Z" fill="#1A1D1F"/>
<path fill-rule="evenodd" clip-rule="evenodd" d="M17.7995 17.3028C18.19 16.9123 18.8232 16.9123 19.2137 17.3028L19.9186 18.0077C20.3091 18.3982 20.3091 19.0313 19.9186 19.4219C19.528 19.8124 18.8949 19.8124 18.5043 19.4219L17.7995 18.717C17.409 18.3265 17.409 17.6933 17.7995 17.3028Z" fill="#1A1D1F"/>
</svg>
