<?xml version="1.0" encoding="UTF-8"?>
<svg width="41px" height="22px" viewBox="0 0 41 22" version="1.1" xmlns="http://www.w3.org/2000/svg" xmlns:xlink="http://www.w3.org/1999/xlink">
    <title>Group</title>
    <g id="Page-1" stroke="none" stroke-width="1" fill="none" fill-rule="evenodd">
        <g id="Group" transform="translate(0.000000, 0.181445)" fill-rule="nonzero">
            <path d="M18.9793439,10.0232278 C18.9793439,11.7064695 18.7173299,13.1848639 18.1933018,14.4584109 C17.6692738,15.7319579 16.956278,16.7943057 16.0543145,17.6454543 L19.0174551,21.2279008 L14.3297858,21.2279008 L12.8625072,19.5224276 C11.8144511,19.8717796 10.6901726,20.0464557 9.48967197,20.0464557 C7.71115246,20.0464557 6.10572101,19.6605804 4.67337761,18.88883 C3.24103422,18.1170796 2.1040521,16.9864493 1.26243126,15.4969392 C0.42081042,14.0074291 0,12.1828587 0,10.0232278 C0,7.85089328 0.42081042,6.01997096 1.26243126,4.53046087 C2.1040521,3.04095077 3.24103422,1.91349644 4.67337761,1.14809786 C6.10572101,0.382699288 7.71115246,0 9.48967197,0 C11.2554878,0 12.8561553,0.382699288 14.2916747,1.14809786 C15.727194,1.91349644 16.867352,3.04095077 17.7121488,4.53046087 C18.5569456,6.01997096 18.9793439,7.85089328 18.9793439,10.0232278 Z M7.62222648,12.5385626 L11.7382288,12.5385626 L12.7005349,13.748591 C13.2531463,12.8339238 13.529452,11.5921361 13.529452,10.0232278 C13.529452,8.27011574 13.1848639,6.92987425 12.4956875,6.00250336 C11.8065112,5.07513247 10.804506,4.61144702 9.48967197,4.61144702 C8.1748379,4.61144702 7.17283271,5.07513247 6.4836564,6.00250336 C5.79448009,6.92987425 5.44989194,8.27011574 5.44989194,10.0232278 C5.44989194,11.7763399 5.79448009,13.1165814 6.4836564,14.0439523 C7.17283271,14.9713232 8.1748379,15.4350086 9.48967197,15.4350086 C9.59765351,15.4350086 9.70245913,15.4318327 9.80408882,15.4254808 L7.62222648,12.5385626 Z" id="Combined-Shape" fill="#272B30"></path>
            <polygon id="Combined-Shape" fill="#0087FF" points="23.2347132 19.7796777 23.2347132 0.266777927 28.5321606 0.266777927 28.5321606 7.88900441 35.544609 7.88900441 35.544609 0.266777927 40.8420564 0.266777927 40.8420564 19.7796777 35.544609 19.7796777 35.544609 12.1574512 28.5321606 12.1574512 28.5321606 19.7796777"></polygon>
        </g>
    </g>
</svg>