<?xml version="1.0" encoding="UTF-8"?>
<svg width="163px" height="23px" viewBox="0 0 163 23" version="1.1" xmlns="http://www.w3.org/2000/svg" xmlns:xlink="http://www.w3.org/1999/xlink">
    <title>Group</title>
    <g id="Page-1" stroke="none" stroke-width="1" fill="none" fill-rule="evenodd">
        <g id="Group" fill-rule="nonzero">
            <path d="M129.112378,21.0784535 C128.713021,21.0784535 128.369387,20.9370788 128.08251,20.6544326 C127.799761,20.3676586 127.658386,20.0243348 127.658386,19.6244611 C127.658386,19.2286119 127.799761,18.8893126 128.08251,18.6065631 C128.369387,18.3238137 128.713021,18.182439 129.112378,18.182439 C129.500385,18.182439 129.839891,18.3238137 130.130896,18.6065631 C130.420868,18.8893126 130.566371,19.2286119 130.566371,19.6244611 C130.566371,19.8910091 130.498263,20.1353707 130.361016,20.3575457 C130.227897,20.575593 130.051437,20.751331 129.833699,20.8846567 C129.615961,21.0138546 129.375521,21.0784535 129.112378,21.0784535 Z M136.11507,21.0724683 C135.408197,21.0724683 134.768399,20.8906419 134.194645,20.5271953 C133.625018,20.1596211 133.172,19.6203333 132.837654,18.9095384 C132.506403,18.1946158 132.340262,17.3180926 132.340262,16.280072 C132.340262,15.2136732 132.512595,14.3271403 132.855197,13.6202667 C133.19883,12.9093686 133.654944,12.3782331 134.224571,12.0268602 C134.798325,11.6714628 135.426772,11.4936609 136.108879,11.4936609 C136.630005,11.4936609 137.064448,11.5826134 137.411177,11.7603121 C137.763066,11.9339863 138.045816,12.1520336 138.259425,12.4146603 C138.478195,12.6731594 138.643304,12.9276338 138.756817,13.1779806 L138.835244,13.1779806 L138.835244,8.5128215 L141.409914,8.5128215 L141.409914,20.9209807 L138.86517,20.9209807 L138.86517,19.430561 L138.756817,19.430561 C138.635049,19.68906 138.463748,19.9454952 138.241883,20.1999696 C138.023113,20.4504196 137.7383,20.6584571 137.387443,20.8240822 C137.039682,20.9896042 136.615557,21.0724683 136.11507,21.0724683 Z M136.933393,19.0185105 C137.349261,19.0185105 137.700118,18.9054107 137.986995,18.6793143 C138.278,18.4490903 138.499866,18.127953 138.653624,17.7159024 C138.811509,17.3039551 138.889936,16.8213204 138.889936,16.2678952 C138.889936,15.7145731 138.813573,15.2338991 138.659815,14.8259763 C138.506057,14.4180535 138.284192,14.1030046 137.993187,13.8808296 C137.702182,13.6586546 137.349261,13.5476187 136.933393,13.5476187 C136.509268,13.5476187 136.151188,13.6626791 135.860183,13.8929032 C135.569178,14.1231273 135.349377,14.4422007 135.199747,14.8502267 C135.051148,15.2581495 134.975817,15.7306713 134.975817,16.2678952 C134.975817,16.8091436 135.051148,17.2877538 135.199747,17.7038288 C135.353504,18.1157762 135.573306,18.4389773 135.860183,18.6732259 C136.151188,18.90345 136.509268,19.0185105 136.933393,19.0185105 Z M147.77384,21.1027039 C146.816207,21.1027039 145.991693,20.9088039 145.301331,20.5211069 C144.615096,20.1292823 144.085715,19.5759602 143.714219,18.8610376 C143.342724,18.1420904 143.156976,17.2918815 143.156976,16.3103076 C143.156976,15.3530873 143.342724,14.5128881 143.714219,13.7899164 C144.085715,13.0669447 144.608904,12.5035097 145.282756,12.0996114 C145.961767,11.69561 146.757387,11.4936609 147.670647,11.4936609 C148.284647,11.4936609 148.855305,11.5926232 149.384687,11.7905477 C149.918195,11.9844478 150.382565,12.2773102 150.778827,12.6690316 C151.178185,13.0608563 151.489828,13.5536039 151.711694,14.1473777 C151.933559,14.737127 152.045008,15.4277992 152.045008,16.2194976 L152.045008,16.9283318 L144.186844,16.9283318 L144.186844,15.3288369 L149.614807,15.3288369 C149.614807,14.9572381 149.534317,14.6280517 149.373335,14.3412778 C149.211322,14.0545038 148.987393,13.8303681 148.700515,13.6687675 C148.417766,13.5031424 148.08858,13.4203815 147.712956,13.4203815 C147.320822,13.4203815 146.974093,13.5111915 146.670705,13.693018 C146.371445,13.8707167 146.137196,14.1110537 145.967959,14.4139258 C145.798722,14.7128765 145.711008,15.0460875 145.70688,15.4136617 L145.70688,16.9344202 C145.70688,17.3948683 145.792531,17.7926782 145.961767,18.127953 C146.135132,18.4631246 146.3797,18.7217268 146.694439,18.90345 C147.010211,19.0851733 147.38377,19.1760865 147.81615,19.1760865 C148.103027,19.1760865 148.365138,19.135738 148.603514,19.0549377 C148.84189,18.9741374 149.045181,18.8529885 149.21545,18.691388 C149.384687,18.5297874 149.513678,18.3318628 149.603456,18.0976142 L151.990315,18.2551902 C151.868547,18.8287381 151.620884,19.3295348 151.24526,19.7576835 C150.873765,20.1818076 150.392884,20.5130579 149.802619,20.751331 C149.217514,20.9855796 148.540566,21.1027039 147.77384,21.1027039 Z M158.73296,11.6149129 L158.73296,13.5536039 L152.990258,13.5536039 L152.990258,11.6149129 L158.73296,11.6149129 Z M154.304939,20.9209807 L154.304939,10.9424027 C154.304939,10.2678286 154.435995,9.70841815 154.698105,9.26406814 C154.965376,8.81982133 155.328616,8.48661042 155.788858,8.26443542 C156.2491,8.04226041 156.772289,7.93122451 157.358427,7.93122451 C157.753657,7.93122451 158.115865,7.96146012 158.442987,8.02213774 C158.774238,8.08271216 159.019838,8.13719818 159.181851,8.18569899 L158.721609,10.1244932 C158.62048,10.0920905 158.495616,10.0618549 158.345986,10.03358 C158.200483,10.005305 158.050853,9.99116757 157.897095,9.99116757 C157.517344,9.99116757 157.25317,10.0800169 157.103539,10.2577157 C156.953909,10.4313898 156.87961,10.6757514 156.87961,10.9908003 L156.87961,20.9209807 L154.304939,20.9209807 Z M160.309753,20.9209807 L160.309753,11.6149129 L162.891647,11.6149129 L162.891647,20.9209807 L160.309753,20.9209807 Z M161.606892,10.4152917 C161.223013,10.4152917 160.893826,10.2880545 160.619332,10.03358 C160.348966,9.77508097 160.213783,9.46612047 160.213783,9.10659529 C160.213783,8.75119784 160.348966,8.44615868 160.619332,8.1916842 C160.893826,7.93318518 161.223013,7.80398727 161.606892,7.80398727 C161.99077,7.80398727 162.317893,7.93318518 162.588259,8.1916842 C162.862753,8.44615868 163,8.75119784 163,9.10659529 C163,9.46612047 162.862753,9.77508097 162.588259,10.03358 C162.317893,10.2880545 161.99077,10.4152917 161.606892,10.4152917 Z" id="Shape" fill="#272B30"></path>
            <path d="M18.9793439,11.2046729 C18.9793439,12.8879146 18.7173299,14.366309 18.1933018,15.639856 C17.6692738,16.913403 16.956278,17.9757508 16.0543145,18.8268994 L19.0174551,22.4093459 L14.3297858,22.4093459 L12.8625072,20.7038727 C11.8144511,21.0532247 10.6901726,21.2279008 9.48967197,21.2279008 C7.71115246,21.2279008 6.10572101,20.8420255 4.67337761,20.0702751 C3.24103422,19.2985247 2.1040521,18.1678944 1.26243126,16.6783843 C0.42081042,15.1888742 3.55271368e-15,13.3643038 3.55271368e-15,11.2046729 C3.55271368e-15,9.03233838 0.42081042,7.20141606 1.26243126,5.71190597 C2.1040521,4.22239588 3.24103422,3.09494155 4.67337761,2.32954297 C6.10572101,1.56414439 7.71115246,1.18144511 9.48967197,1.18144511 C11.2554878,1.18144511 12.8561553,1.56414439 14.2916747,2.32954297 C15.727194,3.09494155 16.867352,4.22239588 17.7121488,5.71190597 C18.5569456,7.20141606 18.9793439,9.03233838 18.9793439,11.2046729 Z M7.62222648,13.7200077 L11.7382288,13.7200077 L12.7005349,14.9300361 C13.2531463,14.0153689 13.529452,12.7735812 13.529452,11.2046729 C13.529452,9.45156084 13.1848639,8.11131935 12.4956875,7.18394846 C11.8065112,6.25657757 10.804506,5.79289213 9.48967197,5.79289213 C8.1748379,5.79289213 7.17283271,6.25657757 6.4836564,7.18394846 C5.79448009,8.11131935 5.44989194,9.45156084 5.44989194,11.2046729 C5.44989194,12.957785 5.79448009,14.2980265 6.4836564,15.2253974 C7.17283271,16.1527683 8.1748379,16.6164537 9.48967197,16.6164537 C9.59765351,16.6164537 9.70245913,16.6132778 9.80408882,16.606926 L7.62222648,13.7200077 Z M31.0224618,14.5584526 L31.0224618,6.32644798 L36.2817981,6.32644798 L36.2817981,20.9611228 L31.2892397,20.9611228 L31.2892397,18.1790102 L31.1367952,18.1790102 C30.8192024,19.1127329 30.2634151,19.8416083 29.4694331,20.3656364 C28.6754512,20.8896645 27.7322007,21.1516785 26.6396816,21.1516785 C25.6170328,21.1516785 24.7230092,20.9166598 23.9576106,20.4466225 C23.192212,19.9765852 22.5983136,19.328696 22.1759152,18.5029548 C21.7535168,17.6772136 21.5391417,16.7307871 21.5327898,15.6636754 L21.5327898,6.32644798 L26.7921261,6.32644798 L26.7921261,14.5584526 C26.7984779,15.2825641 26.9842697,15.8510552 27.3495014,16.2639258 C27.7147331,16.6767964 28.2276454,16.8832317 28.8882384,16.8832317 C29.5424795,16.8832317 30.0633316,16.6767964 30.4507948,16.2639258 C30.838258,15.8510552 31.0288136,15.2825641 31.0224618,14.5584526 Z M43.0274685,21.1897896 C41.6300603,21.1897896 40.4867263,20.8420255 39.5974666,20.1464974 C38.7082068,19.4509692 38.263577,18.3759177 38.263577,16.9213428 C38.263577,15.8478792 38.5017715,14.9840269 38.9781607,14.3297858 C39.4545498,13.6755447 40.0992632,13.1864518 40.9123007,12.8625072 C41.7253381,12.5385626 42.6336535,12.341655 43.6372466,12.2717846 C44.8695066,12.1828587 45.7428867,12.0510577 46.257387,11.8763816 C46.7718873,11.7017056 47.0291374,11.4015804 47.0291374,10.9760061 L47.0291374,10.937895 C47.0291374,10.5567837 46.8830447,10.2645983 46.5908594,10.061339 C46.298674,9.85807959 45.9239146,9.7564499 45.466581,9.7564499 C44.9647844,9.7564499 44.5566777,9.86601941 44.2422609,10.0851584 C43.927844,10.3042974 43.7388763,10.6393578 43.6753578,11.0903395 L38.8352439,11.0903395 C38.8987625,10.2010798 39.183008,9.38010247 39.6879805,8.6274076 C40.192953,7.87471274 40.9313562,7.27128647 41.9031901,6.81712881 C42.875024,6.36297115 44.0882284,6.13589232 45.5428032,6.13589232 C46.9402114,6.13589232 48.1423001,6.34867948 49.1490691,6.77425379 C50.1558382,7.1998281 50.9307646,7.77467101 51.4738482,8.49878253 C52.0169319,9.22289405 52.2884737,10.0359315 52.2884737,10.937895 L52.2884737,20.9611228 L47.3721376,20.9611228 L47.3721376,18.9031217 L47.2578042,18.9031217 C46.8131743,19.722511 46.2351555,20.3084697 45.5237477,20.6609977 C44.8123399,21.0135256 43.9802468,21.1897896 43.0274685,21.1897896 Z M44.7424695,17.8741211 C45.3395439,17.8741211 45.8762757,17.6915053 46.3526648,17.3262736 C46.829054,16.9610419 47.0672485,16.4449536 47.0672485,15.7780088 L47.0672485,14.5584526 C46.5463964,14.7744157 45.8476923,14.9522676 44.9711363,15.0920084 C44.3613581,15.1872863 43.9167283,15.3714901 43.6372466,15.6446199 C43.357765,15.9177496 43.2180242,16.2416943 43.2180242,16.6164537 C43.2180242,17.0229725 43.3609409,17.3342134 43.6467744,17.5501765 C43.9326079,17.7661396 44.2978396,17.8741211 44.7424695,17.8741211 Z M60.0631447,12.7291182 L60.0631447,20.9611228 L54.8038084,20.9611228 L54.8038084,6.32644798 L59.7963668,6.32644798 L59.7963668,9.10856065 L59.9488113,9.10856065 C60.2664041,8.18118976 60.8269553,7.45390232 61.630465,6.92669832 C62.4339747,6.39949432 63.3724614,6.13589232 64.4459249,6.13589232 C65.4812774,6.13589232 66.3816529,6.37249893 67.1470514,6.84571216 C67.91245,7.31892539 68.5063485,7.9684026 68.9287469,8.79414381 C69.3511453,9.61988501 69.5591685,10.5631355 69.5529578,11.6238954 L69.5529578,20.9611228 L64.2934804,20.9611228 L64.2934804,12.7291182 C64.2998323,12.0050067 64.1172164,11.4365157 63.7456329,11.0236451 C63.3740493,10.6107745 62.8579611,10.4043392 62.1973681,10.4043392 C61.543127,10.4043392 61.0254508,10.6107745 60.6443395,11.0236451 C60.2632281,11.4365157 60.0694966,12.0050067 60.0631447,12.7291182 Z M80.871823,6.32644798 L80.871823,10.1375612 L78.3564883,10.1375612 L78.3564883,16.254398 C78.3564883,16.8641761 78.6867847,17.1690652 79.3473777,17.1690652 C79.5061741,17.1690652 79.6919659,17.1500096 79.904753,17.1118985 C80.1175402,17.0737873 80.2747486,17.042028 80.3763783,17.0166206 L81.1386009,20.7134005 C80.9035823,20.7832709 80.5685219,20.8690209 80.1334198,20.9706506 C79.6983177,21.0722803 79.1822295,21.1389748 78.5851551,21.1707341 C76.7685244,21.2723637 75.3949357,20.9436552 74.4643889,20.1846085 C73.533842,19.4255618 73.0780964,18.2806399 73.097152,16.7498427 L73.097152,10.1375612 L71.2297065,10.1375612 L71.2297065,6.32644798 L73.097152,6.32644798 L73.097152,2.8202238 L78.3564883,2.8202238 L78.3564883,6.32644798 L80.871823,6.32644798 Z" id="Combined-Shape" fill="#272B30"></path>
            <path d="M83.2347132,20.9611228 L83.2347132,1.44822303 L88.5321606,1.44822303 L88.5321606,9.07044952 L95.544609,9.07044952 L95.544609,1.44822303 L100.842056,1.44822303 L100.842056,20.9611228 L95.544609,20.9611228 L95.544609,13.3388963 L88.5321606,13.3388963 L88.5321606,20.9611228 L83.2347132,20.9611228 Z M103.433613,20.9611228 L103.433613,6.32644798 L108.69295,6.32644798 L108.69295,20.9611228 L103.433613,20.9611228 Z M106.063282,4.80200269 C105.351874,4.80200269 104.742096,4.56698404 104.233947,4.09694674 C103.725799,3.62690944 103.471725,3.0615943 103.471725,2.40100134 C103.471725,1.74040838 103.725799,1.17509325 104.233947,0.70505595 C104.742096,0.23501865 105.351874,0 106.063282,0 C106.781041,0 107.392407,0.23501865 107.89738,0.70505595 C108.402352,1.17509325 108.654839,1.74040838 108.654839,2.40100134 C108.654839,3.0615943 108.402352,3.62690944 107.89738,4.09694674 C107.392407,4.56698404 106.781041,4.80200269 106.063282,4.80200269 Z M116.620065,1.44822303 L116.620065,20.9611228 L111.360729,20.9611228 L111.360729,1.44822303 L116.620065,1.44822303 Z M124.547181,1.44822303 L124.547181,20.9611228 L119.287844,20.9611228 L119.287844,1.44822303 L124.547181,1.44822303 Z" id="Combined-Shape" fill="#0087FF"></path>
        </g>
    </g>
</svg>