<?xml version="1.0" encoding="UTF-8"?>
<svg width="12px" height="14px" viewBox="0 0 12 14" version="1.1" xmlns="http://www.w3.org/2000/svg" xmlns:xlink="http://www.w3.org/1999/xlink">
    <title>negative</title>
    <g id="Page-1" stroke="none" stroke-width="1" fill="none" fill-rule="evenodd">
        <g id="negative" transform="translate(5.999988, 7.500000) rotate(180.000000) translate(-5.999988, -7.500000) translate(0.000000, 1.000000)">
            <path d="M0.29289,5.29289075 C-0.09763,5.68342075 -0.09763,6.31658075 0.29289,6.70711075 C0.68342,7.09763075 1.31658,7.09763075 1.70711,6.70711075 L0.29289,5.29289075 Z M6,1 L6.70711,0.29289075 C6.31658,-0.09763025 5.68342,-0.09763025 5.29289,0.29289075 L6,1 Z M10.2929,6.70711075 C10.6834,7.09763075 11.3166,7.09763075 11.7071,6.70711075 C12.0976,6.31658075 12.0976,5.68342075 11.7071,5.29289075 L10.2929,6.70711075 Z M1.70711,6.70711075 L6.70711,1.70711075 L5.29289,0.29289075 L0.29289,5.29289075 L1.70711,6.70711075 Z M5.29289,1.70711075 L10.29289,6.70711075 L11.7071,5.29289075 L6.70711,0.29289075 L5.29289,1.70711075 Z" id="Shape" fill="#D53A3A" fill-rule="nonzero"></path>
            <line x1="6" y1="13.0000007" x2="6" y2="1.00000075" id="Path" stroke="#D53A3A" stroke-width="2" stroke-linecap="round"></line>
        </g>
    </g>
</svg>