<svg width="20" height="20" viewBox="0 0 20 20" fill="none" xmlns="http://www.w3.org/2000/svg">
<path d="M12.083 9.14079C13.7274 8.93586 14.9999 7.53314 14.9999 5.83321C14.9999 4.13328 13.7274 2.73056 12.083 2.52563C12.8611 3.40709 13.3333 4.56501 13.3333 5.83321C13.3333 7.10141 12.8611 8.25934 12.083 9.14079Z" fill="#1A1D1F"/>
<path d="M16.6675 16.6664C16.6675 17.1267 17.0406 17.4998 17.5008 17.4998C17.961 17.4998 18.3341 17.1267 18.3341 16.6664V14.9998C18.3341 12.783 16.603 10.9706 14.4189 10.8406C15.2957 11.617 15.9664 12.6209 16.3388 13.7598C16.5479 14.1252 16.6675 14.5485 16.6675 14.9998V16.6664Z" fill="#1A1D1F"/>
<path fill-rule="evenodd" clip-rule="evenodd" d="M5.83366 12.4999C4.45295 12.4999 3.33366 13.6192 3.33366 14.9999V16.6666C3.33366 17.1268 2.96056 17.4999 2.50033 17.4999C2.04009 17.4999 1.66699 17.1268 1.66699 16.6666V14.9999C1.66699 12.6987 3.53247 10.8333 5.83366 10.8333H10.8337C13.1348 10.8333 15.0003 12.6987 15.0003 14.9999V16.6666C15.0003 17.1268 14.6272 17.4999 14.167 17.4999C13.7068 17.4999 13.3337 17.1268 13.3337 16.6666V14.9999C13.3337 13.6192 12.2144 12.4999 10.8337 12.4999H5.83366Z" fill="#1A1D1F"/>
<path fill-rule="evenodd" clip-rule="evenodd" d="M8.33333 4.16667C7.41286 4.16667 6.66667 4.91286 6.66667 5.83333C6.66667 6.75381 7.41286 7.5 8.33333 7.5C9.25381 7.5 10 6.75381 10 5.83333C10 4.91286 9.25381 4.16667 8.33333 4.16667ZM5 5.83333C5 3.99238 6.49238 2.5 8.33333 2.5C10.1743 2.5 11.6667 3.99238 11.6667 5.83333C11.6667 7.67428 10.1743 9.16667 8.33333 9.16667C6.49238 9.16667 5 7.67428 5 5.83333Z" fill="#1A1D1F"/>
</svg>
