<?xml version="1.0" encoding="UTF-8"?>
<svg width="21px" height="22px" viewBox="0 0 21 22" version="1.1" xmlns="http://www.w3.org/2000/svg" xmlns:xlink="http://www.w3.org/1999/xlink">
    <title>swap</title>
    <g id="Page-1" stroke="none" stroke-width="1" fill="none" fill-rule="evenodd">
        <g id="swap" transform="translate(0.000392, 0.994539)" fill="#2A85FF" fill-rule="nonzero">
            <path d="M14.8076084,20.8054614 L10.3466084,16.9604614 C9.83460837,16.5324614 10.1826084,15.7894614 10.9016084,15.7904614 L13.7556084,15.7984614 L13.7306084,7.51646144 C13.793999,6.6993088 14.5038934,6.08579221 15.3216084,6.14146144 C16.1418862,6.09293452 16.851495,6.7067462 16.9216084,7.52546144 L16.9456084,15.8074614 L19.8166084,15.8154614 C20.5166084,15.8154614 20.8886084,16.5624614 20.3786084,16.9894614 L15.9396084,20.8054614 C15.7806757,20.9351555 15.5817425,21.0058245 15.3766084,21.0054675 C15.169584,21.0062222 14.968627,20.935587 14.8076084,20.8054614 L14.8076084,20.8054614 Z M5.27760837,14.8754614 C4.45713787,14.9256371 3.74670373,14.3115556 3.67760837,13.4924614 L3.65260837,5.19246144 L0.797608367,5.18446144 C0.0976083673,5.18446144 -0.272391633,4.43746144 0.236608367,4.01046144 L4.67460837,0.192461442 C5.00285942,-0.0704175142 5.47150918,-0.0632849753 5.79160837,0.209461442 L10.2516084,4.05446144 C10.7636084,4.48346144 10.4146084,5.22646144 9.69760837,5.22446144 L6.84260837,5.21646144 L6.86760837,13.4994614 C6.80472218,14.3136943 6.09852071,14.9258247 5.28360837,14.8724614 L5.27760837,14.8754614 Z" id="Shape"></path>
        </g>
    </g>
</svg>