<?xml version="1.0" encoding="UTF-8"?>
<svg width="16px" height="20px" viewBox="0 0 16 20" version="1.1" xmlns="http://www.w3.org/2000/svg" xmlns:xlink="http://www.w3.org/1999/xlink">
    <title>Shape</title>
    <g id="Page-1" stroke="none" stroke-width="1" fill="none" fill-rule="evenodd">
        <path d="M8,2 C5.79086,2 4,3.79086 4,6 L4,8 L16,8 L16,17 C16,18.6569 14.6569,20 13,20 L3,20 C1.34315,20 0,18.6569 0,17 L0,8 L2,8 L2,6 C2,2.68629 4.68629,0 8,0 C10.9039,0 13.324,2.06196 13.88,4.80107 C13.9899,5.34231 13.6402,5.87015 13.0989,5.98001 C12.5577,6.08988 12.0298,5.74018 11.92,5.19893 C11.5494,3.37356 9.934,2 8,2 Z M2,10 L2,17 C2,17.5523 2.44772,18 3,18 L13,18 C13.5523,18 14,17.5523 14,17 L14,10 L2,10 Z M8,12 C8.5523,12 9,12.4477 9,13 L9,15 C9,15.5523 8.5523,16 8,16 C7.4477,16 7,15.5523 7,15 L7,13 C7,12.4477 7.4477,12 8,12 Z" id="Shape" fill="#FFFFFF"></path>
    </g>
</svg>